<svg width="100" height="20" xmlns="http://www.w3.org/2000/svg">
  <path d="M0,20 Q2,3 4,20" fill="#4a7528" stroke="#3a6220" stroke-width="0.5"/>
  <path d="M3,20 Q5,0 7,20" fill="#6a8b3d" stroke="#5a7b30" stroke-width="0.5"/>
  <path d="M6,20 Q8,10 10,20" fill="#5e7c35" stroke="#4e6c28" stroke-width="0.5"/>
  <path d="M9,20 Q11,1 13,20" fill="#7a9048" stroke="#6a8038" stroke-width="0.5"/>
  <path d="M12,20 Q14,7 16,20" fill="#4a7528" stroke="#3a6220" stroke-width="0.5"/>
  <path d="M15,20 Q17,2 19,20" fill="#85a055" stroke="#75904a" stroke-width="0.5"/>
  <path d="M18,20 Q20,13 22,20" fill="#5e7c35" stroke="#4e6c28" stroke-width="0.5"/>
  <path d="M21,20 Q23,0 25,20" fill="#6a8b3d" stroke="#5a7b30" stroke-width="0.5"/>
  <path d="M24,20 Q26,15 28,20" fill="#4a7528" stroke="#3a6220" stroke-width="0.5"/>
  <path d="M27,20 Q29,1 31,20" fill="#7a9048" stroke="#6a8038" stroke-width="0.5"/>
  <path d="M30,20 Q32,5 34,20" fill="#5e7c35" stroke="#4e6c28" stroke-width="0.5"/>
  <path d="M33,20 Q35,0 37,20" fill="#85a055" stroke="#75904a" stroke-width="0.5"/>
  <path d="M36,20 Q38,11 40,20" fill="#6a8b3d" stroke="#5a7b30" stroke-width="0.5"/>
  <path d="M39,20 Q41,2 43,20" fill="#4a7528" stroke="#3a6220" stroke-width="0.5"/>
  <path d="M42,20 Q44,9 46,20" fill="#5e7c35" stroke="#4e6c28" stroke-width="0.5"/>
  <path d="M45,20 Q47,1 49,20" fill="#7a9048" stroke="#6a8038" stroke-width="0.5"/>
  <path d="M48,20 Q50,4 52,20" fill="#6a8b3d" stroke="#5a7b30" stroke-width="0.5"/>
  <path d="M51,20 Q53,0 55,20" fill="#85a055" stroke="#75904a" stroke-width="0.5"/>
  <path d="M54,20 Q56,17 58,20" fill="#4a7528" stroke="#3a6220" stroke-width="0.5"/>
  <path d="M57,20 Q59,3 61,20" fill="#5e7c35" stroke="#4e6c28" stroke-width="0.5"/>
  <path d="M60,20 Q62,8 64,20" fill="#7a9048" stroke="#6a8038" stroke-width="0.5"/>
  <path d="M63,20 Q65,1 67,20" fill="#6a8b3d" stroke="#5a7b30" stroke-width="0.5"/>
  <path d="M66,20 Q68,12 70,20" fill="#85a055" stroke="#75904a" stroke-width="0.5"/>
  <path d="M69,20 Q71,0 73,20" fill="#4a7528" stroke="#3a6220" stroke-width="0.5"/>
  <path d="M72,20 Q74,6 76,20" fill="#5e7c35" stroke="#4e6c28" stroke-width="0.5"/>
  <path d="M75,20 Q77,1 79,20" fill="#7a9048" stroke="#6a8038" stroke-width="0.5"/>
  <path d="M78,20 Q80,14 82,20" fill="#6a8b3d" stroke="#5a7b30" stroke-width="0.5"/>
  <path d="M81,20 Q83,0 85,20" fill="#85a055" stroke="#75904a" stroke-width="0.5"/>
  <path d="M84,20 Q86,2 88,20" fill="#4a7528" stroke="#3a6220" stroke-width="0.5"/>
  <path d="M87,20 Q89,10 91,20" fill="#5e7c35" stroke="#4e6c28" stroke-width="0.5"/>
  <path d="M90,20 Q92,1 94,20" fill="#7a9048" stroke="#6a8038" stroke-width="0.5"/>
  <path d="M93,20 Q95,3 97,20" fill="#6a8b3d" stroke="#5a7b30" stroke-width="0.5"/>
  <path d="M96,20 Q98,16 100,20" fill="#85a055" stroke="#75904a" stroke-width="0.5"/>
</svg>