<svg width="800" height="450" xmlns="http://www.w3.org/2000/svg">
  <defs>
    <!-- Sky gradient from light blue to lighter blue -->
    <linearGradient id="skyGradient" x1="0%" y1="0%" x2="0%" y2="100%">
      <stop offset="0%" style="stop-color:#87CEEB;stop-opacity:1" />
      <stop offset="100%" style="stop-color:#B0E0E6;stop-opacity:1" />
    </linearGradient>
    
    <!-- Cloud gradient for 3D effect -->
    <radialGradient id="cloudGradient" cx="50%" cy="40%" r="60%">
      <stop offset="0%" style="stop-color:#FFFFFF;stop-opacity:0.9" />
      <stop offset="70%" style="stop-color:#F0F8FF;stop-opacity:0.7" />
      <stop offset="100%" style="stop-color:#E6E6FA;stop-opacity:0.5" />
    </radialGradient>
    
    <!-- Cloud shadow gradient -->
    <radialGradient id="cloudShadow" cx="50%" cy="60%" r="50%">
      <stop offset="0%" style="stop-color:#E0E0E0;stop-opacity:0.3" />
      <stop offset="100%" style="stop-color:#D3D3D3;stop-opacity:0.1" />
    </radialGradient>
  </defs>
  
  <!-- Sky background -->
  <rect width="800" height="450" fill="url(#skyGradient)" />
  
  <!-- Large fluffy cloud -->
  <g opacity="0.8">
    <ellipse cx="150" cy="80" rx="45" ry="25" fill="url(#cloudShadow)" />
    <ellipse cx="150" cy="75" rx="40" ry="20" fill="url(#cloudGradient)" />
    <ellipse cx="130" cy="85" rx="25" ry="15" fill="url(#cloudGradient)" />
    <ellipse cx="170" cy="85" rx="30" ry="18" fill="url(#cloudGradient)" />
    <ellipse cx="155" cy="95" rx="35" ry="12" fill="url(#cloudGradient)" />
  </g>
  
  <!-- Medium cloud -->
  <g opacity="0.7">
    <ellipse cx="450" cy="120" rx="35" ry="20" fill="url(#cloudShadow)" />
    <ellipse cx="450" cy="115" rx="30" ry="15" fill="url(#cloudGradient)" />
    <ellipse cx="435" cy="125" rx="20" ry="12" fill="url(#cloudGradient)" />
    <ellipse cx="465" cy="125" rx="25" ry="14" fill="url(#cloudGradient)" />
  </g>
  
  <!-- Small cloud -->
  <g opacity="0.6">
    <ellipse cx="650" cy="60" rx="25" ry="15" fill="url(#cloudShadow)" />
    <ellipse cx="650" cy="57" rx="20" ry="12" fill="url(#cloudGradient)" />
    <ellipse cx="640" cy="65" rx="15" ry="8" fill="url(#cloudGradient)" />
    <ellipse cx="660" cy="65" rx="18" ry="10" fill="url(#cloudGradient)" />
  </g>
  
  <!-- Distant small clouds -->
  <g opacity="0.4">
    <ellipse cx="300" cy="40" rx="20" ry="10" fill="url(#cloudGradient)" />
    <ellipse cx="550" cy="45" rx="15" ry="8" fill="url(#cloudGradient)" />
    <ellipse cx="750" cy="35" rx="18" ry="9" fill="url(#cloudGradient)" />
  </g>
</svg>